# xmcd
#
# Track frame offsets: 
#        150
#        16032
#        33633
#        54725
#        71722
#        93773
#        109502
#        128964
#        147284
#        169316
#        188049
#        205475
#        219149
#        235638
#        251335
#        270168
#        286865
#        304977
#        320133
#        337397
#
# Disc length: 4694 seconds
#
# Revision: 0
# Processed by: cddbd v1.5.2PL0 Copyright (c) Steve Scherf et al.
# Submitted via: ExactAudioCopy v1.0b3
#
DISCID=26125414
DTITLE=Various Artist - Summer Trance 2008 - CD 2
DYEAR=1900
DGENRE=
TTITLE0=First State Feat. Anita Kelsey - Falling (Radio Edit)
TTITLE1=Armin Van Buuren - The Sound Of Goodbye (Nic Chagall Drumbeat 
TTITLE1=Re-Edit)
TTITLE2=Dash Berlin - Till The Sky Falls Down (Dub Mix Edit)
TTITLE3=Onova - Platitude (Original Mix Edit)
TTITLE4=Thomas Bronzwaer - Resound (Reaves and Ahorn Mix Edit)
TTITLE5=Tom Cloud - Vanilla Sky
TTITLE6=Rex Mundi Vs. Ronski Speed - The Perspective Space (Markus Sch
TTITLE6=ulz Mash Up Edit)
TTITLE7=Sean Tyas Pres. Logistic - One More Night Out (Original Mix Ed
TTITLE7=it)
TTITLE8=Mungo - Summer Blush (Aly and Fila Rework Edit)
TTITLE9=Motehra - Remember Us (DJ Tarkan and V-Sag  Edit)
TTITLE10=Bossanova - Stonecold (Shog's 2Faces Radio Edit)
TTITLE11=4 Strings - Catch A Fall (Club Radio Edit)
TTITLE12=DJ Squared Vs. Marc Korn - Summer Of Love (Club Radio Mix)
TTITLE13=San Danielle - I Dream Of You (Radio Mix)
TTITLE14=DJ Serenity and Daflow - Fuel To The Fire (Radio Mix)
TTITLE15=Dedicated Frequency - Poison Like Sweat (Radio Mix)
TTITLE16=Mira - Waiting (Kimera Remix Edit)
TTITLE17=Basslovers United - Get Back (Radio Edit)
TTITLE18=Gambas and Alvaro - Don't Fade Away 2008 (Pulsedriver Radio Mix
TTITLE18=)
TTITLE19=Fridge Vs. The Hitmen - Angel (The Hitmen Club Cut)
EXTD=
EXTT0=
EXTT1=
EXTT2=
EXTT3=
EXTT4=
EXTT5=
EXTT6=
EXTT7=
EXTT8=
EXTT9=
EXTT10=
EXTT11=
EXTT12=
EXTT13=
EXTT14=
EXTT15=
EXTT16=
EXTT17=
EXTT18=
EXTT19=
PLAYORDER=
